G04 EAGLE Gerber RS-274X export*
G75*
%MOMM*%
%FSLAX34Y34*%
%LPD*%
%INBottom Copper*%
%IPPOS*%
%AMOC8*
5,1,8,0,0,1.08239X$1,22.5*%
G01*
%ADD10C,1.320800*%
%ADD11P,1.429621X8X292.500000*%
%ADD12C,1.320800*%
%ADD13P,1.732040X8X292.500000*%
%ADD14P,1.732040X8X22.500000*%
%ADD15P,1.649562X8X112.500000*%
%ADD16C,1.524000*%
%ADD17R,2.600000X2.600000*%
%ADD18P,1.429621X8X22.500000*%
%ADD19C,1.016000*%
%ADD20C,0.756400*%


D10*
X342900Y475996D02*
X342900Y489204D01*
X368300Y489204D02*
X368300Y475996D01*
X393700Y475996D02*
X393700Y489204D01*
X419100Y489204D02*
X419100Y475996D01*
X444500Y475996D02*
X444500Y489204D01*
X469900Y489204D02*
X469900Y475996D01*
X495300Y475996D02*
X495300Y489204D01*
X520700Y489204D02*
X520700Y475996D01*
X546100Y475996D02*
X546100Y489204D01*
X571500Y489204D02*
X571500Y475996D01*
X596900Y475996D02*
X596900Y489204D01*
X622300Y489204D02*
X622300Y475996D01*
X647700Y475996D02*
X647700Y489204D01*
X673100Y489204D02*
X673100Y475996D01*
X673100Y552196D02*
X673100Y565404D01*
X647700Y565404D02*
X647700Y552196D01*
X622300Y552196D02*
X622300Y565404D01*
X596900Y565404D02*
X596900Y552196D01*
X571500Y552196D02*
X571500Y565404D01*
X546100Y565404D02*
X546100Y552196D01*
X520700Y552196D02*
X520700Y565404D01*
X495300Y565404D02*
X495300Y552196D01*
X469900Y552196D02*
X469900Y565404D01*
X444500Y565404D02*
X444500Y552196D01*
X419100Y552196D02*
X419100Y565404D01*
X393700Y565404D02*
X393700Y552196D01*
X368300Y552196D02*
X368300Y565404D01*
X342900Y565404D02*
X342900Y552196D01*
D11*
X50800Y393700D03*
X50800Y317500D03*
D12*
X598170Y368300D03*
X646430Y368300D03*
D13*
X457200Y419100D03*
X457200Y393700D03*
D14*
X482600Y330200D03*
X508000Y330200D03*
D13*
X63500Y558800D03*
X63500Y508000D03*
D15*
X190500Y584200D03*
X190500Y609600D03*
X190500Y635000D03*
X190500Y660400D03*
X215900Y584200D03*
X215900Y609600D03*
X215900Y635000D03*
X215900Y660400D03*
D16*
X919480Y254000D02*
X934720Y254000D01*
X934720Y279400D02*
X919480Y279400D01*
X919480Y304800D02*
X934720Y304800D01*
X934720Y330200D02*
X919480Y330200D01*
X919480Y355600D02*
X934720Y355600D01*
X934720Y381000D02*
X919480Y381000D01*
X919480Y406400D02*
X934720Y406400D01*
X934720Y431800D02*
X919480Y431800D01*
D17*
X596000Y723900D03*
X547000Y723900D03*
D18*
X228600Y749300D03*
X304800Y749300D03*
X812800Y558800D03*
X889000Y558800D03*
X812800Y508000D03*
X889000Y508000D03*
X812800Y457200D03*
X889000Y457200D03*
X812800Y406400D03*
X889000Y406400D03*
X812800Y355600D03*
X889000Y355600D03*
X812800Y304800D03*
X889000Y304800D03*
D16*
X88900Y728980D02*
X88900Y744220D01*
X114300Y744220D02*
X114300Y728980D01*
X139700Y728980D02*
X139700Y744220D01*
X88900Y71120D02*
X88900Y55880D01*
X114300Y55880D02*
X114300Y71120D01*
X139700Y71120D02*
X139700Y55880D01*
X165100Y55880D02*
X165100Y71120D01*
X190500Y71120D02*
X190500Y55880D01*
D18*
X304800Y266700D03*
X381000Y266700D03*
X304800Y215900D03*
X381000Y215900D03*
X304800Y165100D03*
X381000Y165100D03*
D16*
X391668Y86106D02*
X406908Y86106D01*
X406908Y40894D02*
X391668Y40894D01*
X456692Y86106D02*
X471932Y86106D01*
X471932Y40894D02*
X456692Y40894D01*
X531368Y86106D02*
X546608Y86106D01*
X546608Y40894D02*
X531368Y40894D01*
X596392Y86106D02*
X611632Y86106D01*
X611632Y40894D02*
X596392Y40894D01*
X658368Y86106D02*
X673608Y86106D01*
X673608Y40894D02*
X658368Y40894D01*
X723392Y86106D02*
X738632Y86106D01*
X738632Y40894D02*
X723392Y40894D01*
D18*
X889000Y165100D03*
X965200Y165100D03*
X889000Y114300D03*
X965200Y114300D03*
X889000Y63500D03*
X965200Y63500D03*
D19*
X240000Y585000D02*
X217500Y585000D01*
X240000Y585000D02*
X240000Y737500D01*
X230000Y747500D01*
X217500Y585000D02*
X215900Y584200D01*
X230000Y747500D02*
X228600Y749300D01*
X215000Y510000D02*
X65000Y510000D01*
X215000Y530000D02*
X215000Y580000D01*
X215000Y530000D02*
X215000Y510000D01*
X65000Y510000D02*
X63500Y508000D01*
X215000Y580000D02*
X215900Y584200D01*
X292500Y165000D02*
X192500Y65000D01*
X292500Y165000D02*
X302500Y165000D01*
X192500Y65000D02*
X190500Y63500D01*
X302500Y165000D02*
X304800Y165100D01*
X497500Y520000D02*
X497500Y530000D01*
X497500Y557500D01*
X497500Y520000D02*
X520000Y497500D01*
X520000Y485000D01*
X497500Y557500D02*
X495300Y558800D01*
X520000Y485000D02*
X520700Y482600D01*
X482500Y417500D02*
X457500Y417500D01*
X482500Y417500D02*
X482500Y332500D01*
X457500Y417500D02*
X457200Y419100D01*
X482500Y332500D02*
X482600Y330200D01*
X517500Y475000D02*
X520000Y477500D01*
X517500Y475000D02*
X517500Y457500D01*
X482500Y422500D01*
X520000Y477500D02*
X520700Y482600D01*
X482500Y422500D02*
X482500Y417500D01*
X497500Y530000D02*
X215000Y530000D01*
X50000Y395000D02*
X40000Y405000D01*
X40000Y535000D01*
X62500Y557500D01*
X50000Y395000D02*
X50800Y393700D01*
X62500Y557500D02*
X63500Y558800D01*
X137500Y635000D02*
X137500Y735000D01*
X137500Y635000D02*
X65000Y562500D01*
X137500Y735000D02*
X139700Y736600D01*
X65000Y562500D02*
X63500Y558800D01*
X890000Y557500D02*
X960000Y487500D01*
X960000Y322500D01*
X942500Y305000D01*
X927500Y305000D01*
X890000Y557500D02*
X889000Y558800D01*
X927500Y305000D02*
X927100Y304800D01*
X165000Y277500D02*
X165000Y65000D01*
X165000Y277500D02*
X52500Y390000D01*
X165000Y65000D02*
X165100Y63500D01*
X52500Y390000D02*
X50800Y393700D01*
X542544Y555244D02*
X546100Y558800D01*
X87500Y282500D02*
X52500Y317500D01*
X87500Y282500D02*
X87500Y65000D01*
X52500Y317500D02*
X50800Y317500D01*
X87500Y65000D02*
X88900Y63500D01*
X572500Y442500D02*
X625000Y390000D01*
X645000Y370000D01*
X572500Y442500D02*
X572500Y482500D01*
X645000Y370000D02*
X646430Y368300D01*
X572500Y482500D02*
X571500Y482600D01*
X622500Y332500D02*
X510000Y332500D01*
X622500Y332500D02*
X622500Y387500D01*
X510000Y332500D02*
X508000Y330200D01*
X622500Y387500D02*
X625000Y390000D01*
X597500Y370000D02*
X547500Y420000D01*
X547500Y482500D01*
X597500Y370000D02*
X598170Y368300D01*
X547500Y482500D02*
X546100Y482600D01*
X367500Y560000D02*
X365000Y562500D01*
X365000Y610000D01*
X367500Y560000D02*
X368300Y558800D01*
D20*
X365000Y610000D03*
D19*
X342500Y560000D02*
X262500Y640000D01*
X262500Y657500D01*
X342500Y560000D02*
X342900Y558800D01*
D20*
X262500Y657500D03*
D19*
X444500Y723900D02*
X547000Y723900D01*
X444500Y723900D02*
X419100Y749300D01*
X304800Y749300D01*
X890000Y507500D02*
X925000Y472500D01*
X925000Y432500D01*
X890000Y507500D02*
X889000Y508000D01*
X925000Y432500D02*
X927100Y431800D01*
X442500Y437500D02*
X442500Y482500D01*
X442500Y437500D02*
X432500Y427500D01*
X432500Y345000D01*
X482500Y295000D01*
X444500Y482600D02*
X442500Y482500D01*
D20*
X482500Y295000D03*
D19*
X675000Y485000D02*
X695000Y505000D01*
X695000Y617500D01*
X657500Y655000D01*
X675000Y485000D02*
X673100Y482600D01*
D20*
X657500Y655000D03*
D19*
X596000Y646800D02*
X596000Y723900D01*
X596000Y646800D02*
X584200Y635000D01*
X571500Y635000D01*
X571500Y558800D01*
X740000Y262500D02*
X887500Y115000D01*
X740000Y262500D02*
X740000Y535000D01*
X887500Y115000D02*
X889000Y114300D01*
D20*
X740000Y535000D03*
D19*
X762500Y292500D02*
X887500Y167500D01*
X762500Y292500D02*
X762500Y610000D01*
X672500Y610000D02*
X650000Y587500D01*
X650000Y560000D01*
X887500Y167500D02*
X889000Y165100D01*
X650000Y560000D02*
X647700Y558800D01*
D20*
X762500Y610000D03*
X672500Y610000D03*
D19*
X717500Y235000D02*
X889000Y63500D01*
X717500Y235000D02*
X717500Y625000D01*
X665000Y677500D01*
X622500Y677500D01*
X622500Y560000D01*
X622300Y558800D01*
X382500Y215000D02*
X507500Y90000D01*
X507500Y72500D01*
X537500Y42500D01*
X382500Y215000D02*
X381000Y215900D01*
X537500Y42500D02*
X538988Y40894D01*
X357500Y242500D02*
X380000Y265000D01*
X357500Y242500D02*
X357500Y82500D01*
X397500Y42500D01*
X380000Y265000D02*
X381000Y266700D01*
X397500Y42500D02*
X399288Y40894D01*
X912500Y60000D02*
X965000Y112500D01*
X912500Y60000D02*
X912500Y55000D01*
X875000Y17500D01*
X402500Y17500D01*
X402500Y37500D01*
X965000Y112500D02*
X965200Y114300D01*
X402500Y37500D02*
X399288Y40894D01*
M02*
