G04 EAGLE Gerber RS-274X export*
G75*
%MOMM*%
%FSLAX34Y34*%
%LPD*%
%INSilkscreen Bottom*%
%IPPOS*%
%AMOC8*
5,1,8,0,0,1.08239X$1,22.5*%
G01*
%ADD10C,0.152400*%
%ADD11C,0.127000*%
%ADD12C,0.101600*%


D10*
X228600Y577850D02*
X228600Y590550D01*
X222250Y596900D01*
X228600Y603250D01*
X228600Y615950D01*
X222250Y622300D01*
X228600Y577850D02*
X222250Y571500D01*
X222250Y622300D02*
X228600Y628650D01*
X228600Y641350D01*
X222250Y647700D01*
X228600Y654050D02*
X228600Y666750D01*
X228600Y654050D02*
X222250Y647700D01*
X228600Y666750D02*
X222250Y673100D01*
X184150Y673100D01*
X184150Y596900D02*
X177800Y590550D01*
X177800Y615950D02*
X184150Y622300D01*
X177800Y615950D02*
X177800Y603250D01*
X184150Y596900D01*
X184150Y571500D02*
X222250Y571500D01*
X184150Y571500D02*
X177800Y577850D01*
X177800Y590550D01*
X177800Y641350D02*
X184150Y647700D01*
X177800Y641350D02*
X177800Y628650D01*
X184150Y622300D01*
X184150Y647700D02*
X177800Y654050D01*
X177800Y666750D01*
X184150Y673100D01*
D11*
X173355Y582930D02*
X170815Y579755D01*
X173355Y582930D02*
X161925Y582930D01*
X161925Y579755D02*
X161925Y586105D01*
X236220Y661035D02*
X236331Y661037D01*
X236441Y661043D01*
X236552Y661052D01*
X236662Y661066D01*
X236771Y661083D01*
X236880Y661104D01*
X236988Y661129D01*
X237095Y661158D01*
X237201Y661190D01*
X237306Y661226D01*
X237409Y661266D01*
X237511Y661309D01*
X237612Y661356D01*
X237711Y661407D01*
X237807Y661460D01*
X237902Y661517D01*
X237995Y661578D01*
X238086Y661641D01*
X238175Y661708D01*
X238261Y661778D01*
X238344Y661851D01*
X238426Y661926D01*
X238504Y662004D01*
X238579Y662086D01*
X238652Y662169D01*
X238722Y662255D01*
X238789Y662344D01*
X238852Y662435D01*
X238913Y662528D01*
X238970Y662623D01*
X239023Y662719D01*
X239074Y662818D01*
X239121Y662919D01*
X239164Y663021D01*
X239204Y663124D01*
X239240Y663229D01*
X239272Y663335D01*
X239301Y663442D01*
X239326Y663550D01*
X239347Y663659D01*
X239364Y663768D01*
X239378Y663878D01*
X239387Y663989D01*
X239393Y664099D01*
X239395Y664210D01*
X239393Y664321D01*
X239387Y664431D01*
X239378Y664542D01*
X239364Y664652D01*
X239347Y664761D01*
X239326Y664870D01*
X239301Y664978D01*
X239272Y665085D01*
X239240Y665191D01*
X239204Y665296D01*
X239164Y665399D01*
X239121Y665501D01*
X239074Y665602D01*
X239023Y665701D01*
X238970Y665797D01*
X238913Y665892D01*
X238852Y665985D01*
X238789Y666076D01*
X238722Y666165D01*
X238652Y666251D01*
X238579Y666334D01*
X238504Y666416D01*
X238426Y666494D01*
X238344Y666569D01*
X238261Y666642D01*
X238175Y666712D01*
X238086Y666779D01*
X237995Y666842D01*
X237902Y666903D01*
X237808Y666960D01*
X237711Y667013D01*
X237612Y667064D01*
X237511Y667111D01*
X237409Y667154D01*
X237306Y667194D01*
X237201Y667230D01*
X237095Y667262D01*
X236988Y667291D01*
X236880Y667316D01*
X236771Y667337D01*
X236662Y667354D01*
X236552Y667368D01*
X236441Y667377D01*
X236331Y667383D01*
X236220Y667385D01*
X236109Y667383D01*
X235999Y667377D01*
X235888Y667368D01*
X235778Y667354D01*
X235669Y667337D01*
X235560Y667316D01*
X235452Y667291D01*
X235345Y667262D01*
X235239Y667230D01*
X235134Y667194D01*
X235031Y667154D01*
X234929Y667111D01*
X234828Y667064D01*
X234729Y667013D01*
X234633Y666960D01*
X234538Y666903D01*
X234445Y666842D01*
X234354Y666779D01*
X234265Y666712D01*
X234179Y666642D01*
X234096Y666569D01*
X234014Y666494D01*
X233936Y666416D01*
X233861Y666334D01*
X233788Y666251D01*
X233718Y666165D01*
X233651Y666076D01*
X233588Y665985D01*
X233527Y665892D01*
X233470Y665798D01*
X233417Y665701D01*
X233366Y665602D01*
X233319Y665501D01*
X233276Y665399D01*
X233236Y665296D01*
X233200Y665191D01*
X233168Y665085D01*
X233139Y664978D01*
X233114Y664870D01*
X233093Y664761D01*
X233076Y664652D01*
X233062Y664542D01*
X233053Y664431D01*
X233047Y664321D01*
X233045Y664210D01*
X233047Y664099D01*
X233053Y663989D01*
X233062Y663878D01*
X233076Y663768D01*
X233093Y663659D01*
X233114Y663550D01*
X233139Y663442D01*
X233168Y663335D01*
X233200Y663229D01*
X233236Y663124D01*
X233276Y663021D01*
X233319Y662919D01*
X233366Y662818D01*
X233417Y662719D01*
X233470Y662623D01*
X233527Y662528D01*
X233588Y662435D01*
X233651Y662344D01*
X233718Y662255D01*
X233788Y662169D01*
X233861Y662086D01*
X233936Y662004D01*
X234014Y661926D01*
X234096Y661851D01*
X234179Y661778D01*
X234265Y661708D01*
X234354Y661641D01*
X234445Y661578D01*
X234538Y661517D01*
X234633Y661460D01*
X234729Y661407D01*
X234828Y661356D01*
X234929Y661309D01*
X235031Y661266D01*
X235134Y661226D01*
X235239Y661190D01*
X235345Y661158D01*
X235452Y661129D01*
X235560Y661104D01*
X235669Y661083D01*
X235778Y661066D01*
X235888Y661052D01*
X235999Y661043D01*
X236109Y661037D01*
X236220Y661035D01*
X241935Y661670D02*
X242035Y661672D01*
X242134Y661678D01*
X242234Y661688D01*
X242332Y661701D01*
X242431Y661719D01*
X242528Y661740D01*
X242624Y661765D01*
X242720Y661794D01*
X242814Y661827D01*
X242907Y661863D01*
X242998Y661903D01*
X243088Y661947D01*
X243176Y661994D01*
X243262Y662044D01*
X243346Y662098D01*
X243428Y662155D01*
X243507Y662215D01*
X243585Y662279D01*
X243659Y662345D01*
X243731Y662414D01*
X243800Y662486D01*
X243866Y662560D01*
X243930Y662638D01*
X243990Y662717D01*
X244047Y662799D01*
X244101Y662883D01*
X244151Y662969D01*
X244198Y663057D01*
X244242Y663147D01*
X244282Y663238D01*
X244318Y663331D01*
X244351Y663425D01*
X244380Y663521D01*
X244405Y663617D01*
X244426Y663714D01*
X244444Y663813D01*
X244457Y663911D01*
X244467Y664011D01*
X244473Y664110D01*
X244475Y664210D01*
X244473Y664310D01*
X244467Y664409D01*
X244457Y664509D01*
X244444Y664607D01*
X244426Y664706D01*
X244405Y664803D01*
X244380Y664899D01*
X244351Y664995D01*
X244318Y665089D01*
X244282Y665182D01*
X244242Y665273D01*
X244198Y665363D01*
X244151Y665451D01*
X244101Y665537D01*
X244047Y665621D01*
X243990Y665703D01*
X243930Y665782D01*
X243866Y665860D01*
X243800Y665934D01*
X243731Y666006D01*
X243659Y666075D01*
X243585Y666141D01*
X243507Y666205D01*
X243428Y666265D01*
X243346Y666322D01*
X243262Y666376D01*
X243176Y666426D01*
X243088Y666473D01*
X242998Y666517D01*
X242907Y666557D01*
X242814Y666593D01*
X242720Y666626D01*
X242624Y666655D01*
X242528Y666680D01*
X242431Y666701D01*
X242332Y666719D01*
X242234Y666732D01*
X242134Y666742D01*
X242035Y666748D01*
X241935Y666750D01*
X241835Y666748D01*
X241736Y666742D01*
X241636Y666732D01*
X241538Y666719D01*
X241439Y666701D01*
X241342Y666680D01*
X241246Y666655D01*
X241150Y666626D01*
X241056Y666593D01*
X240963Y666557D01*
X240872Y666517D01*
X240782Y666473D01*
X240694Y666426D01*
X240608Y666376D01*
X240524Y666322D01*
X240442Y666265D01*
X240363Y666205D01*
X240285Y666141D01*
X240211Y666075D01*
X240139Y666006D01*
X240070Y665934D01*
X240004Y665860D01*
X239940Y665782D01*
X239880Y665703D01*
X239823Y665621D01*
X239769Y665537D01*
X239719Y665451D01*
X239672Y665363D01*
X239628Y665273D01*
X239588Y665182D01*
X239552Y665089D01*
X239519Y664995D01*
X239490Y664899D01*
X239465Y664803D01*
X239444Y664706D01*
X239426Y664607D01*
X239413Y664509D01*
X239403Y664409D01*
X239397Y664310D01*
X239395Y664210D01*
X239397Y664110D01*
X239403Y664011D01*
X239413Y663911D01*
X239426Y663813D01*
X239444Y663714D01*
X239465Y663617D01*
X239490Y663521D01*
X239519Y663425D01*
X239552Y663331D01*
X239588Y663238D01*
X239628Y663147D01*
X239672Y663057D01*
X239719Y662969D01*
X239769Y662883D01*
X239823Y662799D01*
X239880Y662717D01*
X239940Y662638D01*
X240004Y662560D01*
X240070Y662486D01*
X240139Y662414D01*
X240211Y662345D01*
X240285Y662279D01*
X240363Y662215D01*
X240442Y662155D01*
X240524Y662098D01*
X240608Y662044D01*
X240694Y661994D01*
X240782Y661947D01*
X240872Y661903D01*
X240963Y661863D01*
X241056Y661827D01*
X241150Y661794D01*
X241246Y661765D01*
X241342Y661740D01*
X241439Y661719D01*
X241538Y661701D01*
X241636Y661688D01*
X241736Y661678D01*
X241835Y661672D01*
X241935Y661670D01*
X235585Y578485D02*
X235485Y578483D01*
X235386Y578477D01*
X235286Y578467D01*
X235188Y578454D01*
X235089Y578436D01*
X234992Y578415D01*
X234896Y578390D01*
X234800Y578361D01*
X234706Y578328D01*
X234613Y578292D01*
X234522Y578252D01*
X234432Y578208D01*
X234344Y578161D01*
X234258Y578111D01*
X234174Y578057D01*
X234092Y578000D01*
X234013Y577940D01*
X233935Y577876D01*
X233861Y577810D01*
X233789Y577741D01*
X233720Y577669D01*
X233654Y577595D01*
X233590Y577517D01*
X233530Y577438D01*
X233473Y577356D01*
X233419Y577272D01*
X233369Y577186D01*
X233322Y577098D01*
X233278Y577008D01*
X233238Y576917D01*
X233202Y576824D01*
X233169Y576730D01*
X233140Y576634D01*
X233115Y576538D01*
X233094Y576441D01*
X233076Y576342D01*
X233063Y576244D01*
X233053Y576144D01*
X233047Y576045D01*
X233045Y575945D01*
X233047Y575804D01*
X233052Y575663D01*
X233062Y575522D01*
X233075Y575381D01*
X233091Y575241D01*
X233112Y575101D01*
X233136Y574962D01*
X233164Y574823D01*
X233195Y574686D01*
X233230Y574549D01*
X233268Y574413D01*
X233310Y574278D01*
X233356Y574145D01*
X233405Y574012D01*
X233458Y573881D01*
X233514Y573752D01*
X233573Y573623D01*
X233636Y573497D01*
X233702Y573372D01*
X233771Y573249D01*
X233844Y573128D01*
X233920Y573009D01*
X233999Y572891D01*
X234080Y572776D01*
X234165Y572664D01*
X234253Y572553D01*
X234344Y572445D01*
X234437Y572339D01*
X234534Y572236D01*
X234633Y572135D01*
X241935Y572453D02*
X242035Y572455D01*
X242134Y572461D01*
X242234Y572471D01*
X242332Y572484D01*
X242431Y572502D01*
X242528Y572523D01*
X242624Y572548D01*
X242720Y572577D01*
X242814Y572610D01*
X242907Y572646D01*
X242998Y572686D01*
X243088Y572730D01*
X243176Y572777D01*
X243262Y572827D01*
X243346Y572881D01*
X243428Y572938D01*
X243507Y572998D01*
X243585Y573062D01*
X243659Y573128D01*
X243731Y573197D01*
X243800Y573269D01*
X243866Y573343D01*
X243930Y573421D01*
X243990Y573500D01*
X244047Y573582D01*
X244101Y573666D01*
X244151Y573752D01*
X244198Y573840D01*
X244242Y573930D01*
X244282Y574021D01*
X244318Y574114D01*
X244351Y574208D01*
X244380Y574304D01*
X244405Y574400D01*
X244426Y574497D01*
X244444Y574596D01*
X244457Y574694D01*
X244467Y574794D01*
X244473Y574893D01*
X244475Y574993D01*
X244476Y574993D02*
X244474Y575126D01*
X244469Y575259D01*
X244459Y575392D01*
X244446Y575525D01*
X244429Y575657D01*
X244409Y575789D01*
X244385Y575920D01*
X244357Y576050D01*
X244326Y576180D01*
X244291Y576308D01*
X244252Y576436D01*
X244210Y576562D01*
X244164Y576687D01*
X244115Y576811D01*
X244063Y576934D01*
X244007Y577055D01*
X243947Y577174D01*
X243885Y577292D01*
X243819Y577407D01*
X243750Y577521D01*
X243677Y577633D01*
X243602Y577743D01*
X243523Y577851D01*
X239712Y573722D02*
X239764Y573638D01*
X239819Y573555D01*
X239878Y573475D01*
X239939Y573397D01*
X240003Y573322D01*
X240071Y573249D01*
X240141Y573178D01*
X240213Y573111D01*
X240288Y573046D01*
X240366Y572984D01*
X240446Y572925D01*
X240528Y572869D01*
X240612Y572817D01*
X240698Y572768D01*
X240786Y572722D01*
X240876Y572679D01*
X240967Y572640D01*
X241060Y572605D01*
X241154Y572573D01*
X241249Y572545D01*
X241345Y572520D01*
X241442Y572500D01*
X241540Y572482D01*
X241638Y572469D01*
X241737Y572460D01*
X241836Y572454D01*
X241935Y572452D01*
X237808Y577215D02*
X237756Y577299D01*
X237701Y577382D01*
X237642Y577462D01*
X237581Y577540D01*
X237517Y577615D01*
X237449Y577688D01*
X237379Y577759D01*
X237307Y577826D01*
X237232Y577891D01*
X237154Y577953D01*
X237074Y578012D01*
X236992Y578068D01*
X236908Y578120D01*
X236822Y578169D01*
X236734Y578215D01*
X236644Y578258D01*
X236553Y578297D01*
X236460Y578332D01*
X236366Y578364D01*
X236271Y578392D01*
X236175Y578417D01*
X236078Y578437D01*
X235980Y578455D01*
X235882Y578468D01*
X235783Y578477D01*
X235684Y578483D01*
X235585Y578485D01*
X237808Y577215D02*
X239713Y573723D01*
X244475Y582549D02*
X233045Y586359D01*
X244475Y590169D01*
X241935Y594614D02*
X244475Y597789D01*
X233045Y597789D01*
X233045Y594614D02*
X233045Y600964D01*
D12*
X609092Y743458D02*
X609092Y755142D01*
X609092Y743458D02*
X603899Y743458D01*
X599186Y743458D02*
X593993Y743458D01*
X599186Y743458D02*
X599186Y755142D01*
X593993Y755142D01*
X595291Y749949D02*
X599186Y749949D01*
X589303Y755142D02*
X589303Y743458D01*
X589303Y755142D02*
X586057Y755142D01*
X585944Y755140D01*
X585831Y755134D01*
X585718Y755124D01*
X585605Y755110D01*
X585493Y755093D01*
X585382Y755071D01*
X585272Y755046D01*
X585162Y755016D01*
X585054Y754983D01*
X584947Y754946D01*
X584841Y754906D01*
X584737Y754861D01*
X584634Y754813D01*
X584533Y754762D01*
X584434Y754707D01*
X584337Y754649D01*
X584242Y754587D01*
X584149Y754522D01*
X584059Y754454D01*
X583971Y754383D01*
X583885Y754308D01*
X583802Y754231D01*
X583722Y754151D01*
X583645Y754068D01*
X583570Y753982D01*
X583499Y753894D01*
X583431Y753804D01*
X583366Y753711D01*
X583304Y753616D01*
X583246Y753519D01*
X583191Y753420D01*
X583140Y753319D01*
X583092Y753216D01*
X583047Y753112D01*
X583007Y753006D01*
X582970Y752899D01*
X582937Y752791D01*
X582907Y752681D01*
X582882Y752571D01*
X582860Y752460D01*
X582843Y752348D01*
X582829Y752235D01*
X582819Y752122D01*
X582813Y752009D01*
X582811Y751896D01*
X582812Y751896D02*
X582812Y746704D01*
X582811Y746704D02*
X582813Y746591D01*
X582819Y746478D01*
X582829Y746365D01*
X582843Y746252D01*
X582860Y746140D01*
X582882Y746029D01*
X582907Y745919D01*
X582937Y745809D01*
X582970Y745701D01*
X583007Y745594D01*
X583047Y745488D01*
X583092Y745384D01*
X583140Y745281D01*
X583191Y745180D01*
X583246Y745081D01*
X583304Y744984D01*
X583366Y744889D01*
X583431Y744796D01*
X583499Y744706D01*
X583570Y744618D01*
X583645Y744532D01*
X583722Y744449D01*
X583802Y744369D01*
X583885Y744292D01*
X583971Y744217D01*
X584059Y744146D01*
X584149Y744078D01*
X584242Y744013D01*
X584337Y743951D01*
X584434Y743893D01*
X584533Y743838D01*
X584634Y743787D01*
X584737Y743739D01*
X584841Y743694D01*
X584947Y743654D01*
X585054Y743617D01*
X585162Y743584D01*
X585272Y743554D01*
X585382Y743529D01*
X585493Y743507D01*
X585605Y743490D01*
X585718Y743476D01*
X585831Y743466D01*
X585944Y743460D01*
X586057Y743458D01*
X589303Y743458D01*
X577492Y752546D02*
X574246Y755142D01*
X574246Y743458D01*
X571001Y743458D02*
X577492Y743458D01*
M02*
