G04 EAGLE Gerber RS-274X export*
G75*
%MOMM*%
%FSLAX34Y34*%
%LPD*%
%INSoldermask Bottom*%
%IPPOS*%
%AMOC8*
5,1,8,0,0,1.08239X$1,22.5*%
G01*
%ADD10C,1.524000*%
%ADD11P,1.649562X8X292.500000*%
%ADD12C,1.524000*%
%ADD13P,1.951982X8X292.500000*%
%ADD14P,1.951982X8X22.500000*%
%ADD15P,1.869504X8X112.500000*%
%ADD16C,1.727200*%
%ADD17R,0.675000X1.100000*%
%ADD18C,2.503200*%
%ADD19P,1.649562X8X22.500000*%
%ADD20C,0.959600*%


D10*
X342900Y475996D02*
X342900Y489204D01*
X368300Y489204D02*
X368300Y475996D01*
X393700Y475996D02*
X393700Y489204D01*
X419100Y489204D02*
X419100Y475996D01*
X444500Y475996D02*
X444500Y489204D01*
X469900Y489204D02*
X469900Y475996D01*
X495300Y475996D02*
X495300Y489204D01*
X520700Y489204D02*
X520700Y475996D01*
X546100Y475996D02*
X546100Y489204D01*
X571500Y489204D02*
X571500Y475996D01*
X596900Y475996D02*
X596900Y489204D01*
X622300Y489204D02*
X622300Y475996D01*
X647700Y475996D02*
X647700Y489204D01*
X673100Y489204D02*
X673100Y475996D01*
X673100Y552196D02*
X673100Y565404D01*
X647700Y565404D02*
X647700Y552196D01*
X622300Y552196D02*
X622300Y565404D01*
X596900Y565404D02*
X596900Y552196D01*
X571500Y552196D02*
X571500Y565404D01*
X546100Y565404D02*
X546100Y552196D01*
X520700Y552196D02*
X520700Y565404D01*
X495300Y565404D02*
X495300Y552196D01*
X469900Y552196D02*
X469900Y565404D01*
X444500Y565404D02*
X444500Y552196D01*
X419100Y552196D02*
X419100Y565404D01*
X393700Y565404D02*
X393700Y552196D01*
X368300Y552196D02*
X368300Y565404D01*
X342900Y565404D02*
X342900Y552196D01*
D11*
X50800Y393700D03*
X50800Y317500D03*
D12*
X598170Y368300D03*
X646430Y368300D03*
D13*
X457200Y419100D03*
X457200Y393700D03*
D14*
X482600Y330200D03*
X508000Y330200D03*
D13*
X63500Y558800D03*
X63500Y508000D03*
D15*
X190500Y584200D03*
X190500Y609600D03*
X190500Y635000D03*
X190500Y660400D03*
X215900Y584200D03*
X215900Y609600D03*
X215900Y635000D03*
X215900Y660400D03*
D16*
X919480Y254000D02*
X934720Y254000D01*
X934720Y279400D02*
X919480Y279400D01*
X919480Y304800D02*
X934720Y304800D01*
X934720Y330200D02*
X919480Y330200D01*
X919480Y355600D02*
X934720Y355600D01*
X934720Y381000D02*
X919480Y381000D01*
X919480Y406400D02*
X934720Y406400D01*
X934720Y431800D02*
X919480Y431800D01*
D17*
X586375Y720400D03*
X556625Y727400D03*
D18*
X571500Y723900D03*
D19*
X228600Y749300D03*
X304800Y749300D03*
X812800Y558800D03*
X889000Y558800D03*
X812800Y508000D03*
X889000Y508000D03*
X812800Y457200D03*
X889000Y457200D03*
X812800Y406400D03*
X889000Y406400D03*
X812800Y355600D03*
X889000Y355600D03*
X812800Y304800D03*
X889000Y304800D03*
D16*
X88900Y728980D02*
X88900Y744220D01*
X114300Y744220D02*
X114300Y728980D01*
X139700Y728980D02*
X139700Y744220D01*
X88900Y71120D02*
X88900Y55880D01*
X114300Y55880D02*
X114300Y71120D01*
X139700Y71120D02*
X139700Y55880D01*
X165100Y55880D02*
X165100Y71120D01*
X190500Y71120D02*
X190500Y55880D01*
D19*
X304800Y266700D03*
X381000Y266700D03*
X304800Y215900D03*
X381000Y215900D03*
X304800Y165100D03*
X381000Y165100D03*
D16*
X391668Y86106D02*
X406908Y86106D01*
X406908Y40894D02*
X391668Y40894D01*
X456692Y86106D02*
X471932Y86106D01*
X471932Y40894D02*
X456692Y40894D01*
X531368Y86106D02*
X546608Y86106D01*
X546608Y40894D02*
X531368Y40894D01*
X596392Y86106D02*
X611632Y86106D01*
X611632Y40894D02*
X596392Y40894D01*
X658368Y86106D02*
X673608Y86106D01*
X673608Y40894D02*
X658368Y40894D01*
X723392Y86106D02*
X738632Y86106D01*
X738632Y40894D02*
X723392Y40894D01*
D19*
X889000Y165100D03*
X965200Y165100D03*
X889000Y114300D03*
X965200Y114300D03*
X889000Y63500D03*
X965200Y63500D03*
D20*
X365000Y610000D03*
X262500Y657500D03*
X482500Y295000D03*
X657500Y655000D03*
X740000Y535000D03*
X762500Y610000D03*
X672500Y610000D03*
M02*
