M48
;GenerationSoftware,Autodesk,EAGLE,9.6.2*%
;CreationDate,2023-01-18T13:26:59Z*%
FMAT,2
ICI,OFF
METRIC,TZ,000.000
T4C0.350
T3C0.813
T2C1.016
T1C2.300
%
G90
M71
T1
X57150Y72390
T2
X73101Y4089
X73101Y8611
X66599Y4089
X66599Y8611
X60401Y4089
X60401Y8611
X92710Y25400
X53899Y4089
X53899Y8611
X46431Y4089
X46431Y8611
X39929Y4089
X39929Y8611
X19050Y6350
X16510Y6350
X13970Y6350
X11430Y6350
X8890Y6350
X13970Y73660
X11430Y73660
X8890Y73660
X92710Y43180
X92710Y40640
X92710Y38100
X92710Y35560
X92710Y33020
X92710Y30480
X92710Y27940
X21590Y66040
X21590Y63500
X21590Y60960
X21590Y58420
X19050Y66040
X19050Y63500
X19050Y60960
X19050Y58420
T3
X5080Y31750
X59817Y36830
X64643Y36830
X45720Y41910
X45720Y39370
X48260Y33020
X50800Y33020
X6350Y55880
X6350Y50800
X5080Y39370
X34290Y55880
X36830Y55880
X39370Y55880
X41910Y55880
X44450Y55880
X46990Y55880
X49530Y55880
X96520Y6350
X52070Y55880
X54610Y55880
X57150Y55880
X59690Y55880
X62230Y55880
X64770Y55880
X67310Y55880
X22860Y74930
X30480Y74930
X81280Y55880
X88900Y55880
X81280Y50800
X88900Y50800
X81280Y45720
X88900Y45720
X81280Y40640
X88900Y40640
X81280Y35560
X88900Y35560
X81280Y30480
X88900Y30480
X67310Y48260
X64770Y48260
X62230Y48260
X59690Y48260
X57150Y48260
X54610Y48260
X52070Y48260
X49530Y48260
X30480Y26670
X38100Y26670
X30480Y21590
X38100Y21590
X30480Y16510
X38100Y16510
X46990Y48260
X44450Y48260
X41910Y48260
X39370Y48260
X36830Y48260
X34290Y48260
X88900Y6350
X96520Y11430
X88900Y11430
X96520Y16510
X88900Y16510
T4
X26250Y65750
X48250Y29500
X65750Y65500
X74000Y53500
X76250Y61000
X67250Y61000
X36500Y61000
M30