G04 EAGLE Gerber RS-274X export*
G75*
%MOMM*%
%FSLAX34Y34*%
%LPD*%
%INTop Copper*%
%IPPOS*%
%AMOC8*
5,1,8,0,0,1.08239X$1,22.5*%
G01*
%ADD10C,1.320800*%
%ADD11P,1.429621X8X292.500000*%
%ADD12C,1.320800*%
%ADD13P,1.732040X8X292.500000*%
%ADD14P,1.732040X8X22.500000*%
%ADD15P,1.649562X8X112.500000*%
%ADD16C,1.524000*%
%ADD17R,0.009400X0.009400*%
%ADD18P,1.429621X8X22.500000*%
%ADD19C,1.016000*%
%ADD20C,0.756400*%


D10*
X342900Y475996D02*
X342900Y489204D01*
X368300Y489204D02*
X368300Y475996D01*
X393700Y475996D02*
X393700Y489204D01*
X419100Y489204D02*
X419100Y475996D01*
X444500Y475996D02*
X444500Y489204D01*
X469900Y489204D02*
X469900Y475996D01*
X495300Y475996D02*
X495300Y489204D01*
X520700Y489204D02*
X520700Y475996D01*
X546100Y475996D02*
X546100Y489204D01*
X571500Y489204D02*
X571500Y475996D01*
X596900Y475996D02*
X596900Y489204D01*
X622300Y489204D02*
X622300Y475996D01*
X647700Y475996D02*
X647700Y489204D01*
X673100Y489204D02*
X673100Y475996D01*
X673100Y552196D02*
X673100Y565404D01*
X647700Y565404D02*
X647700Y552196D01*
X622300Y552196D02*
X622300Y565404D01*
X596900Y565404D02*
X596900Y552196D01*
X571500Y552196D02*
X571500Y565404D01*
X546100Y565404D02*
X546100Y552196D01*
X520700Y552196D02*
X520700Y565404D01*
X495300Y565404D02*
X495300Y552196D01*
X469900Y552196D02*
X469900Y565404D01*
X444500Y565404D02*
X444500Y552196D01*
X419100Y552196D02*
X419100Y565404D01*
X393700Y565404D02*
X393700Y552196D01*
X368300Y552196D02*
X368300Y565404D01*
X342900Y565404D02*
X342900Y552196D01*
D11*
X50800Y393700D03*
X50800Y317500D03*
D12*
X598170Y368300D03*
X646430Y368300D03*
D13*
X457200Y419100D03*
X457200Y393700D03*
D14*
X482600Y330200D03*
X508000Y330200D03*
D13*
X63500Y558800D03*
X63500Y508000D03*
D15*
X190500Y584200D03*
X190500Y609600D03*
X190500Y635000D03*
X190500Y660400D03*
X215900Y584200D03*
X215900Y609600D03*
X215900Y635000D03*
X215900Y660400D03*
D16*
X919480Y254000D02*
X934720Y254000D01*
X934720Y279400D02*
X919480Y279400D01*
X919480Y304800D02*
X934720Y304800D01*
X934720Y330200D02*
X919480Y330200D01*
X919480Y355600D02*
X934720Y355600D01*
X934720Y381000D02*
X919480Y381000D01*
X919480Y406400D02*
X934720Y406400D01*
X934720Y431800D02*
X919480Y431800D01*
D17*
X601519Y722095D03*
X546516Y723806D03*
D18*
X228600Y749300D03*
X304800Y749300D03*
X812800Y558800D03*
X889000Y558800D03*
X812800Y508000D03*
X889000Y508000D03*
X812800Y457200D03*
X889000Y457200D03*
X812800Y406400D03*
X889000Y406400D03*
X812800Y355600D03*
X889000Y355600D03*
X812800Y304800D03*
X889000Y304800D03*
D16*
X88900Y728980D02*
X88900Y744220D01*
X114300Y744220D02*
X114300Y728980D01*
X139700Y728980D02*
X139700Y744220D01*
X88900Y71120D02*
X88900Y55880D01*
X114300Y55880D02*
X114300Y71120D01*
X139700Y71120D02*
X139700Y55880D01*
X165100Y55880D02*
X165100Y71120D01*
X190500Y71120D02*
X190500Y55880D01*
D18*
X304800Y266700D03*
X381000Y266700D03*
X304800Y215900D03*
X381000Y215900D03*
X304800Y165100D03*
X381000Y165100D03*
D16*
X391668Y86106D02*
X406908Y86106D01*
X406908Y40894D02*
X391668Y40894D01*
X456692Y86106D02*
X471932Y86106D01*
X471932Y40894D02*
X456692Y40894D01*
X531368Y86106D02*
X546608Y86106D01*
X546608Y40894D02*
X531368Y40894D01*
X596392Y86106D02*
X611632Y86106D01*
X611632Y40894D02*
X596392Y40894D01*
X658368Y86106D02*
X673608Y86106D01*
X673608Y40894D02*
X658368Y40894D01*
X723392Y86106D02*
X738632Y86106D01*
X738632Y40894D02*
X723392Y40894D01*
D18*
X889000Y165100D03*
X965200Y165100D03*
X889000Y114300D03*
X965200Y114300D03*
X889000Y63500D03*
X965200Y63500D03*
D19*
X227500Y750000D02*
X210000Y767500D01*
X105000Y767500D01*
X90000Y752500D01*
X90000Y737500D01*
X227500Y750000D02*
X228600Y749300D01*
X90000Y737500D02*
X88900Y736600D01*
X305000Y215000D02*
X305000Y167500D01*
X304800Y165100D01*
X305000Y215000D02*
X304800Y215900D01*
X305000Y220000D02*
X305000Y265000D01*
X304800Y266700D01*
X305000Y220000D02*
X304800Y215900D01*
X492500Y255000D02*
X925000Y255000D01*
X492500Y255000D02*
X460000Y287500D01*
X460000Y290000D02*
X460000Y330000D01*
X460000Y290000D02*
X460000Y287500D01*
X460000Y330000D02*
X482500Y330000D01*
X925000Y255000D02*
X927100Y254000D01*
X482600Y330200D02*
X482500Y330000D01*
X335000Y290000D02*
X310000Y265000D01*
X335000Y290000D02*
X460000Y290000D01*
X310000Y265000D02*
X304800Y266700D01*
X540000Y87500D02*
X562500Y110000D01*
X642500Y110000D01*
X665000Y87500D01*
X540000Y87500D02*
X538988Y86106D01*
X665000Y87500D02*
X665988Y86106D01*
X167500Y95000D02*
X167500Y65000D01*
X167500Y95000D02*
X390000Y95000D01*
X397500Y87500D01*
X167500Y65000D02*
X165100Y63500D01*
X397500Y87500D02*
X399288Y86106D01*
X512500Y110000D02*
X535000Y87500D01*
X512500Y110000D02*
X422500Y110000D01*
X402500Y90000D01*
X535000Y87500D02*
X538988Y86106D01*
X402500Y90000D02*
X399288Y86106D01*
X495000Y485000D02*
X495000Y530000D01*
X302500Y530000D01*
X247500Y585000D02*
X225000Y607500D01*
X247500Y585000D02*
X270000Y562500D01*
X302500Y530000D01*
X225000Y607500D02*
X217500Y607500D01*
X495000Y485000D02*
X495300Y482600D01*
X217500Y607500D02*
X215900Y609600D01*
X860000Y587500D02*
X887500Y560000D01*
X860000Y587500D02*
X250000Y587500D01*
X887500Y560000D02*
X889000Y558800D01*
X250000Y587500D02*
X247500Y585000D01*
X267500Y560000D02*
X65000Y560000D01*
X63500Y558800D01*
X267500Y560000D02*
X270000Y562500D01*
X542544Y555244D02*
X546100Y558800D01*
X542544Y555244D02*
X542544Y543148D01*
X529396Y530000D01*
X495000Y530000D01*
X342500Y482500D02*
X177500Y317500D01*
X50800Y317500D01*
X342500Y482500D02*
X342900Y482600D01*
X457500Y392500D02*
X480000Y370000D01*
X597500Y370000D01*
X457500Y392500D02*
X457200Y393700D01*
X597500Y370000D02*
X598170Y368300D01*
X365000Y610000D02*
X340000Y635000D01*
X215900Y635000D01*
D20*
X365000Y610000D03*
D19*
X262500Y657500D02*
X260000Y660000D01*
X217500Y660000D01*
X215900Y660400D01*
D20*
X262500Y657500D03*
D19*
X890000Y330000D02*
X890000Y305000D01*
X890000Y330000D02*
X925000Y330000D01*
X890000Y305000D02*
X889000Y304800D01*
X925000Y330000D02*
X927100Y330200D01*
X925000Y355000D02*
X890000Y355000D01*
X889000Y355600D01*
X925000Y355000D02*
X927100Y355600D01*
X890000Y382500D02*
X890000Y405000D01*
X890000Y382500D02*
X925000Y382500D01*
X890000Y405000D02*
X889000Y406400D01*
X925000Y382500D02*
X927100Y381000D01*
X945000Y455000D02*
X890000Y455000D01*
X945000Y455000D02*
X960000Y440000D01*
X960000Y407500D01*
X927500Y407500D01*
X890000Y455000D02*
X889000Y457200D01*
X927500Y407500D02*
X927100Y406400D01*
X865000Y507500D02*
X815000Y557500D01*
X865000Y507500D02*
X865000Y280000D01*
X925000Y280000D01*
X815000Y557500D02*
X812800Y558800D01*
X925000Y280000D02*
X927100Y279400D01*
X490000Y302500D02*
X482500Y295000D01*
X490000Y302500D02*
X812500Y302500D01*
X812800Y304800D01*
D20*
X482500Y295000D03*
D19*
X470000Y440000D02*
X470000Y482500D01*
X470000Y440000D02*
X557500Y440000D01*
X605000Y392500D01*
X777500Y392500D01*
X812500Y357500D01*
X470000Y482500D02*
X469900Y482600D01*
X812500Y357500D02*
X812800Y355600D01*
X597500Y430000D02*
X597500Y482500D01*
X597500Y430000D02*
X790000Y430000D01*
X812500Y407500D01*
X597500Y482500D02*
X596900Y482600D01*
X812500Y407500D02*
X812800Y406400D01*
X650000Y452500D02*
X650000Y482500D01*
X650000Y452500D02*
X810000Y452500D01*
X812500Y455000D01*
X650000Y482500D02*
X647700Y482600D01*
X812800Y457200D02*
X812500Y455000D01*
X657500Y655000D02*
X617500Y695000D01*
X140000Y695000D01*
X115000Y720000D01*
X115000Y735000D01*
X114300Y736600D01*
D20*
X657500Y655000D03*
D19*
X622500Y512500D02*
X622500Y485000D01*
X622500Y512500D02*
X810000Y512500D01*
X812500Y510000D01*
X622500Y485000D02*
X622300Y482600D01*
X812500Y510000D02*
X812800Y508000D01*
X367500Y482500D02*
X367500Y335000D01*
X310000Y335000D01*
X115000Y140000D01*
X115000Y65000D01*
X367500Y482500D02*
X368300Y482600D01*
X115000Y65000D02*
X114300Y63500D01*
X392500Y312500D02*
X392500Y482500D01*
X392500Y312500D02*
X317500Y312500D01*
X140000Y135000D01*
X140000Y65000D01*
X392500Y482500D02*
X393700Y482600D01*
X140000Y65000D02*
X139700Y63500D01*
X717500Y557500D02*
X740000Y535000D01*
X717500Y557500D02*
X675000Y557500D01*
X673100Y558800D01*
D20*
X740000Y535000D03*
D19*
X762500Y610000D02*
X672500Y610000D01*
D20*
X762500Y610000D03*
X672500Y610000D03*
D19*
X382500Y165000D02*
X415000Y132500D01*
X660000Y132500D01*
X685000Y107500D02*
X697500Y95000D01*
X685000Y107500D02*
X660000Y132500D01*
X697500Y95000D02*
X697500Y42500D01*
X667500Y42500D01*
X382500Y165000D02*
X381000Y165100D01*
X665988Y40894D02*
X667500Y42500D01*
X940000Y90000D02*
X965000Y65000D01*
X940000Y90000D02*
X767500Y90000D01*
X747500Y110000D01*
X687500Y110000D01*
X965000Y65000D02*
X965200Y63500D01*
X687500Y110000D02*
X685000Y107500D01*
X917500Y215000D02*
X965000Y167500D01*
X917500Y215000D02*
X382500Y215000D01*
X965000Y167500D02*
X965200Y165100D01*
X382500Y215000D02*
X381000Y215900D01*
M02*
